{
  "accessors": [
    {
      "bufferView": 2,
      "componentType": 5126,
      "count": 7794,
      "max": [
        1.1842299699783325,
        4.6476597785949707,
        3.4095289707183838
      ],
      "min": [
        -1.3243199586868286,
        -4.8459901809692383,
        -1.67507004737854
      ],
      "type": "VEC3"
    },
    {
      "bufferView": 2,
      "byteOffset": 93528,
      "componentType": 5126,
      "count": 7794,
      "max": [
        0.99997472763061523,
        0.99663740396499634,
        0.9999929666519165
      ],
      "min": [
        -0.9999924898147583,
        -0.99988782405853271,
        -0.99997222423553467
      ],
      "type": "VEC3"
    },
    {
      "bufferView": 3,
      "componentType": 5126,
      "count": 7794,
      "max": [
        0.99957680702209473,
        0.99557280540466309,
        0.99605685472488403,
        1
      ],
      "min": [
        -0.99999922513961792,
        -0.99998170137405396,
        -0.99998801946640015,
        -1
      ],
      "type": "VEC4"
    },
    {
      "bufferView": 1,
      "componentType": 5126,
      "count": 7794,
      "max": [
        0.98692399263381958,
        0.98116099834442139
      ],
      "min": [
        0.0041140001267194748,
        0.045258000493049622
      ],
      "type": "VEC2"
    },
    {
      "bufferView": 0,
      "componentType": 5125,
      "count": 38070,
      "max": [
        7793
      ],
      "min": [
        0
      ],
      "type": "SCALAR"
    }
  ],
  "asset": {
    "extras": {
      "author": "Thomas Flynn (https://sketchfab.com/nebulousflynn)",
      "license": "CC-BY-4.0 (http://creativecommons.org/licenses/by/4.0/)",
      "source": "https://sketchfab.com/3d-models/statuette-of-a-jackal-optimised-re-upload-f8f34ed873a24255843ce792bf9d426f",
      "title": "Statuette Of A Jackal - Optimised Re-Upload"
    },
    "generator": "Sketchfab-9.31.1",
    "version": "2.0"
  },
  "bufferViews": [
    {
      "buffer": 0,
      "byteLength": 152280,
      "byteOffset": 0,
      "name": "floatBufferViews",
      "target": 34963
    },
    {
      "buffer": 0,
      "byteLength": 62352,
      "byteOffset": 152280,
      "byteStride": 8,
      "name": "floatBufferViews",
      "target": 34962
    },
    {
      "buffer": 0,
      "byteLength": 187056,
      "byteOffset": 214632,
      "byteStride": 12,
      "name": "floatBufferViews",
      "target": 34962
    },
    {
      "buffer": 0,
      "byteLength": 124704,
      "byteOffset": 401688,
      "byteStride": 16,
      "name": "floatBufferViews",
      "target": 34962
    }
  ],
  "buffers": [
    {
      "byteLength": 526392,
      "uri": "scene.bin"
    }
  ],
  "images": [
    {
      "uri": "textures/Default_OBJ_baseColor.jpeg"
    },
    {
      "uri": "textures/Default_OBJ_metallicRoughness.png"
    },
    {
      "uri": "textures/Default_OBJ_normal.jpeg"
    }
  ],
  "materials": [
    {
      "doubleSided": true,
      "emissiveFactor": [
        0,
        0,
        0
      ],
      "name": "Default_OBJ",
      "normalTexture": {
        "index": 2,
        "scale": 1,
        "texCoord": 0
      },
      "occlusionTexture": {
        "index": 1,
        "strength": 1,
        "texCoord": 0
      },
      "pbrMetallicRoughness": {
        "baseColorFactor": [
          1,
          1,
          1,
          1
        ],
        "baseColorTexture": {
          "index": 0,
          "texCoord": 0
        },
        "metallicFactor": 0.44473241114989442,
        "metallicRoughnessTexture": {
          "index": 1,
          "texCoord": 0
        },
        "roughnessFactor": 0.80635083268962915
      }
    }
  ],
  "meshes": [
    {
      "primitives": [
        {
          "attributes": {
            "NORMAL": 1,
            "POSITION": 0,
            "TANGENT": 2,
            "TEXCOORD_0": 3
          },
          "indices": 4,
          "material": 0,
          "mode": 4
        }
      ]
    }
  ],
  "nodes": [
    {
      "children": [
        1
      ],
      "name": "RootNode (gltf orientation matrix)",
      "rotation": [
        -0.70710678118654746,
        -0,
        -0,
        0.70710678118654757
      ]
    },
    {
      "children": [
        2
      ],
      "matrix": [
        0.046847023069858551,
        0,
        0,
        0,
        0,
        0.046847023069858551,
        0,
        0,
        0,
        0,
        0.046847023069858551,
        0,
        0,
        0,
        0,
        1
      ],
      "name": "RootNode (model correction matrix)"
    },
    {
      "children": [
        3
      ],
      "name": "Stauette of a Jackal - 5k TRIS.obj.cleaner.materialmerger.gles"
    },
    {
      "mesh": 0,
      "name": ""
    }
  ],
  "samplers": [
    {
      "magFilter": 9729,
      "minFilter": 9987,
      "wrapS": 10497,
      "wrapT": 10497
    }
  ],
  "scene": 0,
  "scenes": [
    {
      "name": "OSG_Scene",
      "nodes": [
        0
      ]
    }
  ],
  "textures": [
    {
      "sampler": 0,
      "source": 0
    },
    {
      "sampler": 0,
      "source": 1
    },
    {
      "sampler": 0,
      "source": 2
    }
  ]
}

