{
  "accessors": [
    {
      "bufferView": 2,
      "componentType": 5126,
      "count": 65532,
      "max": [
        1.0741080045700073,
        -4.4529128074645996,
        2.9060070514678955
      ],
      "min": [
        -1.2537529468536377,
        -7.0983519554138184,
        -1.5177309513092041
      ],
      "type": "VEC3"
    },
    {
      "bufferView": 2,
      "byteOffset": 786384,
      "componentType": 5126,
      "count": 65532,
      "max": [
        0.99999308586120605,
        0.99991965293884277,
        0.99994158744812012
      ],
      "min": [
        -0.99997782707214355,
        -0.99998366832733154,
        -0.99986356496810913
      ],
      "type": "VEC3"
    },
    {
      "bufferView": 3,
      "componentType": 5126,
      "count": 65532,
      "max": [
        0.99996691942214966,
        0.99999362230300903,
        0.99993598461151123,
        1
      ],
      "min": [
        -0.99998873472213745,
        -0.9998355507850647,
        -0.99999505281448364,
        -1
      ],
      "type": "VEC4"
    },
    {
      "bufferView": 1,
      "componentType": 5126,
      "count": 65532,
      "max": [
        0.99111902713775635,
        0.99650800228118896
      ],
      "min": [
        0.0062179998494684696,
        0.0036549998912960291
      ],
      "type": "VEC2"
    },
    {
      "bufferView": 0,
      "componentType": 5125,
      "count": 279174,
      "max": [
        65531
      ],
      "min": [
        0
      ],
      "type": "SCALAR"
    },
    {
      "bufferView": 2,
      "byteOffset": 1572768,
      "componentType": 5126,
      "count": 41497,
      "max": [
        1.0236539840698242,
        -5.0376977920532227,
        2.9384300708770752
      ],
      "min": [
        -1.3064219951629639,
        -7.2153010368347168,
        -0.55469799041748047
      ],
      "type": "VEC3"
    },
    {
      "bufferView": 2,
      "byteOffset": 2070732,
      "componentType": 5126,
      "count": 41497,
      "max": [
        0.99980753660202026,
        0.99991554021835327,
        0.99998980760574341
      ],
      "min": [
        -0.99990040063858032,
        -0.99994343519210815,
        -0.99963492155075073
      ],
      "type": "VEC3"
    },
    {
      "bufferView": 3,
      "byteOffset": 1048512,
      "componentType": 5126,
      "count": 41497,
      "max": [
        0.99988752603530884,
        0.99982196092605591,
        0.99993050098419189,
        1
      ],
      "min": [
        -0.99999600648880005,
        -0.99975872039794922,
        -0.9995192289352417,
        -1
      ],
      "type": "VEC4"
    },
    {
      "bufferView": 1,
      "byteOffset": 524256,
      "componentType": 5126,
      "count": 41497,
      "max": [
        0.98894000053405762,
        0.99624800682067871
      ],
      "min": [
        0.0029929999727755785,
        0.0030799999367445707
      ],
      "type": "VEC2"
    },
    {
      "bufferView": 0,
      "byteOffset": 1116696,
      "componentType": 5125,
      "count": 169755,
      "max": [
        41496
      ],
      "min": [
        0
      ],
      "type": "SCALAR"
    }
  ],
  "asset": {
    "extras": {
      "author": "Versal (https://sketchfab.com/versal)",
      "license": "CC-BY-4.0 (http://creativecommons.org/licenses/by/4.0/)",
      "source": "https://sketchfab.com/models/cbeba7930818452abc853e9cc3877823",
      "title": "Triceratops skull"
    },
    "generator": "Sketchfab-3.29.4",
    "version": "2.0"
  },
  "bufferViews": [
    {
      "buffer": 0,
      "byteLength": 1795716,
      "byteOffset": 0,
      "name": "floatBufferViews",
      "target": 34963
    },
    {
      "buffer": 0,
      "byteLength": 856232,
      "byteOffset": 1795716,
      "byteStride": 8,
      "name": "floatBufferViews",
      "target": 34962
    },
    {
      "buffer": 0,
      "byteLength": 2568696,
      "byteOffset": 2651948,
      "byteStride": 12,
      "name": "floatBufferViews",
      "target": 34962
    },
    {
      "buffer": 0,
      "byteLength": 1712464,
      "byteOffset": 5220644,
      "byteStride": 16,
      "name": "floatBufferViews",
      "target": 34962
    }
  ],
  "buffers": [
    {
      "byteLength": 6933108,
      "uri": "scene.bin"
    }
  ],
  "extensionsUsed": [
    "KHR_materials_unlit"
  ],
  "images": [
    {
      "uri": "textures/material_0_baseColor.jpeg"
    }
  ],
  "materials": [
    {
      "doubleSided": true,
      "emissiveFactor": [
        0,
        0,
        0
      ],
      "extensions": {
        "KHR_materials_unlit": {}
      },
      "name": "material_0",
      "pbrMetallicRoughness": {
        "baseColorFactor": [
          1,
          1,
          1,
          1
        ],
        "baseColorTexture": {
          "index": 0,
          "texCoord": 0
        },
        "metallicFactor": 0,
        "roughnessFactor": 1
      }
    }
  ],
  "meshes": [
    {
      "primitives": [
        {
          "attributes": {
            "NORMAL": 1,
            "POSITION": 0,
            "TANGENT": 2,
            "TEXCOORD_0": 3
          },
          "indices": 4,
          "material": 0,
          "mode": 4
        }
      ]
    },
    {
      "primitives": [
        {
          "attributes": {
            "NORMAL": 6,
            "POSITION": 5,
            "TANGENT": 7,
            "TEXCOORD_0": 8
          },
          "indices": 9,
          "material": 0,
          "mode": 4
        }
      ]
    }
  ],
  "nodes": [
    {
      "children": [
        1
      ],
      "name": "RootNode (gltf orientation matrix)",
      "rotation": [
        -0.70710678118654746,
        -0,
        -0,
        0.70710678118654757
      ]
    },
    {
      "children": [
        2
      ],
      "matrix": [
        1,
        0,
        0,
        0,
        0,
        0,
        -1,
        0,
        0,
        1,
        0,
        0,
        0,
        -6.544489860534668,
        -5.1237211227416992,
        1
      ],
      "name": "RootNode (model correction matrix)"
    },
    {
      "children": [
        3,
        4
      ],
      "name": "triceratops.obj.cleaner"
    },
    {
      "mesh": 0,
      "name": ""
    },
    {
      "mesh": 1,
      "name": ""
    }
  ],
  "samplers": [
    {
      "magFilter": 9729,
      "minFilter": 9987,
      "wrapS": 10497,
      "wrapT": 10497
    }
  ],
  "scene": 0,
  "scenes": [
    {
      "name": "OSG_Scene",
      "nodes": [
        0
      ]
    }
  ],
  "textures": [
    {
      "sampler": 0,
      "source": 0
    }
  ]
}

