{
  "accessors": [
    {
      "bufferView": 2,
      "componentType": 5126,
      "count": 65532,
      "max": [
        1.879364013671875,
        0.48760899901390076,
        1.3120180368423462
      ],
      "min": [
        -2.5794589519500732,
        -6.709630012512207,
        -2.0768399238586426
      ],
      "type": "VEC3"
    },
    {
      "bufferView": 2,
      "byteOffset": 786384,
      "componentType": 5126,
      "count": 65532,
      "max": [
        0.99991577863693237,
        0.99893838167190552,
        0.99999642372131348
      ],
      "min": [
        -0.99999815225601196,
        -0.9999847412109375,
        -0.9999774694442749
      ],
      "type": "VEC3"
    },
    {
      "bufferView": 3,
      "componentType": 5126,
      "count": 65532,
      "max": [
        0.99999016523361206,
        0.99997180700302124,
        0.99991202354431152,
        1
      ],
      "min": [
        -0.97416973114013672,
        -0.99949735403060913,
        -0.99996250867843628,
        -1
      ],
      "type": "VEC4"
    },
    {
      "bufferView": 1,
      "componentType": 5126,
      "count": 65532,
      "max": [
        0.66304999589920044,
        0.62623000144958496
      ],
      "min": [
        0.0018360000103712082,
        0.024111000820994377
      ],
      "type": "VEC2"
    },
    {
      "bufferView": 0,
      "componentType": 5125,
      "count": 368151,
      "max": [
        65531
      ],
      "min": [
        0
      ],
      "type": "SCALAR"
    },
    {
      "bufferView": 2,
      "byteOffset": 1572768,
      "componentType": 5126,
      "count": 65532,
      "max": [
        3.0092101097106934,
        1.9897960424423218,
        1.3513610363006592
      ],
      "min": [
        -3.2356400489807129,
        -3.3354580402374268,
        -3.2772719860076904
      ],
      "type": "VEC3"
    },
    {
      "bufferView": 2,
      "byteOffset": 2359152,
      "componentType": 5126,
      "count": 65532,
      "max": [
        0.99997669458389282,
        0.99909293651580811,
        0.99998575448989868
      ],
      "min": [
        -0.99999815225601196,
        -0.99996376037597656,
        -0.99995744228363037
      ],
      "type": "VEC3"
    },
    {
      "bufferView": 3,
      "byteOffset": 1048512,
      "componentType": 5126,
      "count": 65532,
      "max": [
        0.99999016523361206,
        0.99931782484054565,
        0.9998701810836792,
        1
      ],
      "min": [
        -0.99999189376831055,
        -0.99973005056381226,
        -0.99960154294967651,
        -1
      ],
      "type": "VEC4"
    },
    {
      "bufferView": 1,
      "byteOffset": 524256,
      "componentType": 5126,
      "count": 65532,
      "max": [
        0.66198700666427612,
        0.74431699514389038
      ],
      "min": [
        0.15525700151920319,
        0.029264999553561211
      ],
      "type": "VEC2"
    },
    {
      "bufferView": 0,
      "byteOffset": 1472604,
      "componentType": 5125,
      "count": 339996,
      "max": [
        65531
      ],
      "min": [
        0
      ],
      "type": "SCALAR"
    },
    {
      "bufferView": 2,
      "byteOffset": 3145536,
      "componentType": 5126,
      "count": 38422,
      "max": [
        3.0423738956451416,
        2.021172046661377,
        1.3549760580062866
      ],
      "min": [
        -3.6178879737854004,
        0.28449299931526184,
        -3.7797698974609375
      ],
      "type": "VEC3"
    },
    {
      "bufferView": 2,
      "byteOffset": 3606600,
      "componentType": 5126,
      "count": 38422,
      "max": [
        0.9999765157699585,
        0.99999034404754639,
        0.99995791912078857
      ],
      "min": [
        -0.99988698959350586,
        -0.99999910593032837,
        -0.99996101856231689
      ],
      "type": "VEC3"
    },
    {
      "bufferView": 3,
      "byteOffset": 2097024,
      "componentType": 5126,
      "count": 38422,
      "max": [
        0.99999934434890747,
        0.99971920251846313,
        0.97194713354110718,
        1
      ],
      "min": [
        -0.99998891353607178,
        -0.9999658465385437,
        -0.99987757205963135,
        -1
      ],
      "type": "VEC4"
    },
    {
      "bufferView": 1,
      "byteOffset": 1048512,
      "componentType": 5126,
      "count": 38422,
      "max": [
        0.94709497690200806,
        0.86831098794937134
      ],
      "min": [
        0.15916700661182404,
        0.053086999803781509
      ],
      "type": "VEC2"
    },
    {
      "bufferView": 0,
      "byteOffset": 2832588,
      "componentType": 5125,
      "count": 183969,
      "max": [
        38421
      ],
      "min": [
        0
      ],
      "type": "SCALAR"
    }
  ],
  "asset": {
    "extras": {
      "author": "artfletch (https://sketchfab.com/artfletch)",
      "license": "CC-BY-4.0 (http://creativecommons.org/licenses/by/4.0/)",
      "source": "https://sketchfab.com/3d-models/korean-buddha-iron-statue-872b44150e12431a898d0b8057705770",
      "title": "Korean Buddha Iron Statue"
    },
    "generator": "Sketchfab-6.25.0",
    "version": "2.0"
  },
  "bufferViews": [
    {
      "buffer": 0,
      "byteLength": 3568464,
      "byteOffset": 0,
      "name": "floatBufferViews",
      "target": 34963
    },
    {
      "buffer": 0,
      "byteLength": 1355888,
      "byteOffset": 3568464,
      "byteStride": 8,
      "name": "floatBufferViews",
      "target": 34962
    },
    {
      "buffer": 0,
      "byteLength": 4067664,
      "byteOffset": 4924352,
      "byteStride": 12,
      "name": "floatBufferViews",
      "target": 34962
    },
    {
      "buffer": 0,
      "byteLength": 2711776,
      "byteOffset": 8992016,
      "byteStride": 16,
      "name": "floatBufferViews",
      "target": 34962
    }
  ],
  "buffers": [
    {
      "byteLength": 11703792,
      "uri": "scene.bin"
    }
  ],
  "extensionsUsed": [
    "KHR_materials_unlit"
  ],
  "images": [
    {
      "uri": "textures/BMBuddhaKorea01_baseColor.jpeg"
    }
  ],
  "materials": [
    {
      "doubleSided": true,
      "emissiveFactor": [
        0,
        0,
        0
      ],
      "extensions": {
        "KHR_materials_unlit": {}
      },
      "name": "BMBuddhaKorea01",
      "pbrMetallicRoughness": {
        "baseColorFactor": [
          1,
          1,
          1,
          1
        ],
        "baseColorTexture": {
          "index": 0,
          "texCoord": 0
        },
        "metallicFactor": 0,
        "roughnessFactor": 1
      }
    }
  ],
  "meshes": [
    {
      "primitives": [
        {
          "attributes": {
            "NORMAL": 1,
            "POSITION": 0,
            "TANGENT": 2,
            "TEXCOORD_0": 3
          },
          "indices": 4,
          "material": 0,
          "mode": 4
        }
      ]
    },
    {
      "primitives": [
        {
          "attributes": {
            "NORMAL": 6,
            "POSITION": 5,
            "TANGENT": 7,
            "TEXCOORD_0": 8
          },
          "indices": 9,
          "material": 0,
          "mode": 4
        }
      ]
    },
    {
      "primitives": [
        {
          "attributes": {
            "NORMAL": 11,
            "POSITION": 10,
            "TANGENT": 12,
            "TEXCOORD_0": 13
          },
          "indices": 14,
          "material": 0,
          "mode": 4
        }
      ]
    }
  ],
  "nodes": [
    {
      "children": [
        1
      ],
      "name": "RootNode (gltf orientation matrix)",
      "rotation": [
        -0.70710678118654746,
        -0,
        -0,
        0.70710678118654757
      ]
    },
    {
      "children": [
        2
      ],
      "matrix": [
        1,
        0,
        0,
        0,
        0,
        2.2204460492503131e-16,
        -1,
        0,
        0,
        1,
        2.2204460492503131e-16,
        0,
        0,
        -1.1318364143371582,
        -3.5566236972808838,
        1
      ],
      "name": "RootNode (model correction matrix)"
    },
    {
      "children": [
        3,
        4,
        5
      ],
      "name": "BMBuddhaKorea02.obj.cleaner.materialmerger.gles"
    },
    {
      "mesh": 0,
      "name": ""
    },
    {
      "mesh": 1,
      "name": ""
    },
    {
      "mesh": 2,
      "name": ""
    }
  ],
  "samplers": [
    {
      "magFilter": 9729,
      "minFilter": 9987,
      "wrapS": 10497,
      "wrapT": 10497
    }
  ],
  "scene": 0,
  "scenes": [
    {
      "name": "OSG_Scene",
      "nodes": [
        0
      ]
    }
  ],
  "textures": [
    {
      "sampler": 0,
      "source": 0
    }
  ]
}

