{
  "accessors": [
    {
      "bufferView": 2,
      "componentType": 5126,
      "count": 3556,
      "max": [
        174.55650329589844,
        294.82928466796875,
        350.60238647460938
      ],
      "min": [
        -174.55650329589844,
        -546.60687255859375,
        -0.0050960001535713673
      ],
      "type": "VEC3"
    },
    {
      "bufferView": 2,
      "byteOffset": 42672,
      "componentType": 5126,
      "count": 3556,
      "max": [
        0.99845486879348755,
        0.99999910593032837,
        0.99991923570632935
      ],
      "min": [
        -0.99845486879348755,
        -0.99998509883880615,
        -0.99998754262924194
      ],
      "type": "VEC3"
    },
    {
      "bufferView": 3,
      "componentType": 5126,
      "count": 3556,
      "max": [
        0.99973255395889282,
        0.99999582767486572,
        0.99971455335617065,
        1
      ],
      "min": [
        -1,
        -0.99961751699447632,
        -0.99796962738037109,
        -1
      ],
      "type": "VEC4"
    },
    {
      "bufferView": 1,
      "componentType": 5126,
      "count": 3556,
      "max": [
        0.99000000953674316,
        0.99000000953674316
      ],
      "min": [
        0.0099999997764825821,
        0.015560000203549862
      ],
      "type": "VEC2"
    },
    {
      "bufferView": 0,
      "componentType": 5125,
      "count": 16326,
      "max": [
        3555
      ],
      "min": [
        0
      ],
      "type": "SCALAR"
    },
    {
      "bufferView": 2,
      "byteOffset": 85344,
      "componentType": 5126,
      "count": 74,
      "max": [
        42.197803497314453,
        242.53092956542969,
        176.30458068847656
      ],
      "min": [
        -42.199985504150391,
        223.04075622558594,
        156.52912902832031
      ],
      "type": "VEC3"
    },
    {
      "bufferView": 2,
      "byteOffset": 86232,
      "componentType": 5126,
      "count": 74,
      "max": [
        0.96396458148956299,
        0.99941486120223999,
        0.90903592109680176
      ],
      "min": [
        -0.96396470069885254,
        -0.87760460376739502,
        -0.99545586109161377
      ],
      "type": "VEC3"
    },
    {
      "bufferView": 3,
      "byteOffset": 56896,
      "componentType": 5126,
      "count": 74,
      "max": [
        0.97459489107131958,
        0.36164692044258118,
        -0.094774380326271057,
        1
      ],
      "min": [
        -0.97459501028060913,
        -0.48212310671806335,
        -0.99753808975219727,
        -1
      ],
      "type": "VEC4"
    },
    {
      "bufferView": 1,
      "byteOffset": 28448,
      "componentType": 5126,
      "count": 74,
      "max": [
        0.99799990653991699,
        0.99606359004974365
      ],
      "min": [
        0.0020000040531158447,
        0.0020000338554382324
      ],
      "type": "VEC2"
    },
    {
      "bufferView": 0,
      "byteOffset": 65304,
      "componentType": 5125,
      "count": 360,
      "max": [
        73
      ],
      "min": [
        0
      ],
      "type": "SCALAR"
    }
  ],
  "asset": {
    "extras": {
      "author": "pikabobalex (https://sketchfab.com/pikabobalex)",
      "license": "CC-BY-4.0 (http://creativecommons.org/licenses/by/4.0/)",
      "source": "https://sketchfab.com/models/55b9adcbcf7846e8a833bfc77eaf3d3f",
      "title": "Dino - Ankylosaurus"
    },
    "generator": "Sketchfab-3.19.6",
    "version": "2.0"
  },
  "bufferViews": [
    {
      "buffer": 0,
      "byteLength": 66744,
      "byteOffset": 0,
      "name": "floatBufferViews",
      "target": 34963
    },
    {
      "buffer": 0,
      "byteLength": 29040,
      "byteOffset": 66744,
      "byteStride": 8,
      "name": "floatBufferViews",
      "target": 34962
    },
    {
      "buffer": 0,
      "byteLength": 87120,
      "byteOffset": 95784,
      "byteStride": 12,
      "name": "floatBufferViews",
      "target": 34962
    },
    {
      "buffer": 0,
      "byteLength": 58080,
      "byteOffset": 182904,
      "byteStride": 16,
      "name": "floatBufferViews",
      "target": 34962
    }
  ],
  "buffers": [
    {
      "byteLength": 240984,
      "uri": "scene.bin"
    }
  ],
  "extensionsRequired": [
    "KHR_materials_pbrSpecularGlossiness"
  ],
  "extensionsUsed": [
    "KHR_materials_pbrSpecularGlossiness"
  ],
  "images": [
    {
      "uri": "textures/material_diffuse.png"
    },
    {
      "uri": "textures/material_normal.png"
    },
    {
      "uri": "textures/Body_diffuse.png"
    },
    {
      "uri": "textures/Body_normal.png"
    },
    {
      "uri": "textures/Body_specularGlossiness.png"
    },
    {
      "uri": "textures/Body_occlusion.png"
    }
  ],
  "materials": [
    {
      "doubleSided": false,
      "extensions": {
        "KHR_materials_pbrSpecularGlossiness": {
          "diffuseFactor": [
            1,
            1,
            1,
            1
          ],
          "diffuseTexture": {
            "index": 2,
            "texCoord": 0
          },
          "glossinessFactor": 1,
          "specularFactor": [
            1,
            1,
            1
          ],
          "specularGlossinessTexture": {
            "index": 4,
            "texCoord": 0
          }
        }
      },
      "name": "Body",
      "normalTexture": {
        "index": 3,
        "scale": 1,
        "texCoord": 0
      },
      "occlusionTexture": {
        "index": 5,
        "strength": 1,
        "texCoord": 0
      }
    },
    {
      "doubleSided": true,
      "emissiveFactor": [
        0,
        0,
        0
      ],
      "extensions": {
        "KHR_materials_pbrSpecularGlossiness": {
          "diffuseFactor": [
            1,
            1,
            1,
            1
          ],
          "diffuseTexture": {
            "index": 0,
            "texCoord": 0
          },
          "glossinessFactor": 0.1070286404,
          "specularFactor": [
            0.050000000000000003,
            0.050000000000000003,
            0.050000000000000003
          ]
        }
      },
      "name": "material",
      "normalTexture": {
        "index": 1,
        "scale": 1,
        "texCoord": 0
      }
    }
  ],
  "meshes": [
    {
      "name": "RetopoGroup003_Body_0",
      "primitives": [
        {
          "attributes": {
            "NORMAL": 1,
            "POSITION": 0,
            "TANGENT": 2,
            "TEXCOORD_0": 3
          },
          "indices": 4,
          "material": 0,
          "mode": 4
        }
      ]
    },
    {
      "name": "RetopoGroup003_Eye_0",
      "primitives": [
        {
          "attributes": {
            "NORMAL": 6,
            "POSITION": 5,
            "TANGENT": 7,
            "TEXCOORD_0": 8
          },
          "indices": 9,
          "material": 1,
          "mode": 4
        }
      ]
    }
  ],
  "nodes": [
    {
      "children": [
        1
      ],
      "name": "RootNode (gltf orientation matrix)",
      "rotation": [
        -0.70710678118654746,
        -0,
        -0,
        0.70710678118654757
      ]
    },
    {
      "children": [
        2
      ],
      "matrix": [
        -0.99998599290847778,
        -0.0052931089885532856,
        0,
        0,
        -0.0052931089885532856,
        0.99998599290847778,
        0,
        0,
        0,
        0,
        -1,
        0,
        0.66506010293960571,
        0.0017601300496608019,
        -350.59671020507812,
        1
      ],
      "name": "RootNode (model correction matrix)"
    },
    {
      "children": [
        3
      ],
      "matrix": [
        1,
        0,
        0,
        0,
        0,
        -1,
        0,
        0,
        0,
        0,
        -1,
        0,
        0,
        0,
        0,
        1
      ],
      "name": "Dino-Anky-Low.FBX"
    },
    {
      "children": [
        4
      ],
      "name": "RootNode"
    },
    {
      "children": [
        5,
        6
      ],
      "name": "RetopoGroup003"
    },
    {
      "mesh": 0,
      "name": "RetopoGroup003_Body_0"
    },
    {
      "mesh": 1,
      "name": "RetopoGroup003_Eye_0"
    }
  ],
  "samplers": [
    {
      "magFilter": 9729,
      "minFilter": 9987,
      "wrapS": 10497,
      "wrapT": 10497
    }
  ],
  "scene": 0,
  "scenes": [
    {
      "name": "OSG_Scene",
      "nodes": [
        0
      ]
    }
  ],
  "textures": [
    {
      "sampler": 0,
      "source": 0
    },
    {
      "sampler": 0,
      "source": 1
    },
    {
      "sampler": 0,
      "source": 2
    },
    {
      "sampler": 0,
      "source": 3
    },
    {
      "sampler": 0,
      "source": 4
    },
    {
      "sampler": 0,
      "source": 5
    }
  ]
}

