{
  "accessors": [
    {
      "bufferView": 2,
      "componentType": 5126,
      "count": 48877,
      "max": [
        8.4167613983154297,
        10.629885673522949,
        32.812381744384766
      ],
      "min": [
        -12.154955863952637,
        -7.6629409790039062,
        0.64914000034332275
      ],
      "type": "VEC3"
    },
    {
      "bufferView": 2,
      "byteOffset": 586524,
      "componentType": 5126,
      "count": 48877,
      "max": [
        0.999991774559021,
        0.99997568130493164,
        0.99997949600219727
      ],
      "min": [
        -0.99970334768295288,
        -0.99999761581420898,
        -0.99999320507049561
      ],
      "type": "VEC3"
    },
    {
      "bufferView": 1,
      "componentType": 5126,
      "count": 48877,
      "max": [
        0.99975597858428955,
        0.99877899885177612
      ],
      "min": [
        0.00024399999529123306,
        0.00024399999529123306
      ],
      "type": "VEC2"
    },
    {
      "bufferView": 0,
      "componentType": 5125,
      "count": 220422,
      "max": [
        48876
      ],
      "min": [
        0
      ],
      "type": "SCALAR"
    },
    {
      "bufferView": 2,
      "byteOffset": 1173048,
      "componentType": 5126,
      "count": 13751,
      "max": [
        7.9401087760925293,
        10.746784210205078,
        32.129070281982422
      ],
      "min": [
        -9.6898212432861328,
        -7.4109067916870117,
        0.64914000034332275
      ],
      "type": "VEC3"
    },
    {
      "bufferView": 2,
      "byteOffset": 1338060,
      "componentType": 5126,
      "count": 13751,
      "max": [
        0.99992752075195312,
        0.99969357252120972,
        0.94840443134307861
      ],
      "min": [
        -0.99976938962936401,
        -0.99994909763336182,
        -0.99944043159484863
      ],
      "type": "VEC3"
    },
    {
      "bufferView": 1,
      "byteOffset": 391016,
      "componentType": 5126,
      "count": 13751,
      "max": [
        0.99975299835205078,
        0.53881800174713135
      ],
      "min": [
        0.00024399999529123306,
        0.00025899999309331179
      ],
      "type": "VEC2"
    },
    {
      "bufferView": 0,
      "byteOffset": 881688,
      "componentType": 5125,
      "count": 69393,
      "max": [
        13750
      ],
      "min": [
        0
      ],
      "type": "SCALAR"
    },
    {
      "bufferView": 2,
      "byteOffset": 1503072,
      "componentType": 5126,
      "count": 34497,
      "max": [
        8.5515909194946289,
        10.896942138671875,
        31.558975219726562
      ],
      "min": [
        -12.21746826171875,
        -6.9520211219787598,
        0.98993402719497681
      ],
      "type": "VEC3"
    },
    {
      "bufferView": 2,
      "byteOffset": 1917036,
      "componentType": 5126,
      "count": 34497,
      "max": [
        0.99999284744262695,
        0.99999856948852539,
        0.91120576858520508
      ],
      "min": [
        -0.99999654293060303,
        -0.99995946884155273,
        -0.99944043159484863
      ],
      "type": "VEC3"
    },
    {
      "bufferView": 1,
      "byteOffset": 501024,
      "componentType": 5126,
      "count": 34497,
      "max": [
        0.99975097179412842,
        0.99877899885177612
      ],
      "min": [
        0.00024399999529123306,
        0.00027399999089539051
      ],
      "type": "VEC2"
    },
    {
      "bufferView": 0,
      "byteOffset": 1159260,
      "componentType": 5125,
      "count": 183249,
      "max": [
        34496
      ],
      "min": [
        0
      ],
      "type": "SCALAR"
    }
  ],
  "asset": {
    "extras": {
      "author": "LZ Creation (https://sketchfab.com/jmch)",
      "license": "CC-BY-4.0 (http://creativecommons.org/licenses/by/4.0/)",
      "source": "https://sketchfab.com/3d-models/tete-monumentale-de-moai-1de8bfcb4e2e47d6a0c6a4e484001b0e",
      "title": "Tête monumentale de Moaï"
    },
    "generator": "Sketchfab-7.82.0",
    "version": "2.0"
  },
  "bufferViews": [
    {
      "buffer": 0,
      "byteLength": 1892256,
      "byteOffset": 0,
      "name": "floatBufferViews",
      "target": 34963
    },
    {
      "buffer": 0,
      "byteLength": 777000,
      "byteOffset": 1892256,
      "byteStride": 8,
      "name": "floatBufferViews",
      "target": 34962
    },
    {
      "buffer": 0,
      "byteLength": 2331000,
      "byteOffset": 2669256,
      "byteStride": 12,
      "name": "floatBufferViews",
      "target": 34962
    }
  ],
  "buffers": [
    {
      "byteLength": 5000256,
      "uri": "scene.bin"
    }
  ],
  "images": [
    {
      "uri": "textures/Material_u1_v1_baseColor.jpeg"
    },
    {
      "uri": "textures/Material_u1_v2_baseColor.jpeg"
    },
    {
      "uri": "textures/Material_u2_v1_baseColor.jpeg"
    }
  ],
  "materials": [
    {
      "doubleSided": true,
      "emissiveFactor": [
        0,
        0,
        0
      ],
      "name": "Material_u1_v1",
      "pbrMetallicRoughness": {
        "baseColorFactor": [
          1,
          1,
          1,
          1
        ],
        "baseColorTexture": {
          "index": 0,
          "texCoord": 0
        },
        "metallicFactor": 0,
        "roughnessFactor": 0.85857864376269055
      }
    },
    {
      "doubleSided": true,
      "emissiveFactor": [
        0,
        0,
        0
      ],
      "name": "Material_u1_v2",
      "pbrMetallicRoughness": {
        "baseColorFactor": [
          1,
          1,
          1,
          1
        ],
        "baseColorTexture": {
          "index": 1,
          "texCoord": 0
        },
        "metallicFactor": 0,
        "roughnessFactor": 0.85857864376269055
      }
    },
    {
      "doubleSided": true,
      "emissiveFactor": [
        0,
        0,
        0
      ],
      "name": "Material_u2_v1",
      "pbrMetallicRoughness": {
        "baseColorFactor": [
          1,
          1,
          1,
          1
        ],
        "baseColorTexture": {
          "index": 2,
          "texCoord": 0
        },
        "metallicFactor": 0,
        "roughnessFactor": 0.85857864376269055
      }
    }
  ],
  "meshes": [
    {
      "primitives": [
        {
          "attributes": {
            "NORMAL": 1,
            "POSITION": 0,
            "TEXCOORD_0": 2
          },
          "indices": 3,
          "material": 0,
          "mode": 4
        }
      ]
    },
    {
      "primitives": [
        {
          "attributes": {
            "NORMAL": 5,
            "POSITION": 4,
            "TEXCOORD_0": 6
          },
          "indices": 7,
          "material": 1,
          "mode": 4
        }
      ]
    },
    {
      "primitives": [
        {
          "attributes": {
            "NORMAL": 9,
            "POSITION": 8,
            "TEXCOORD_0": 10
          },
          "indices": 11,
          "material": 2,
          "mode": 4
        }
      ]
    }
  ],
  "nodes": [
    {
      "children": [
        1
      ],
      "name": "RootNode (gltf orientation matrix)",
      "rotation": [
        -0.70710678118654746,
        -0,
        -0,
        0.70710678118654757
      ]
    },
    {
      "children": [
        2
      ],
      "matrix": [
        -0.99852502346038818,
        2.8327492261615017e-16,
        -0.054293807595968246,
        0,
        -0.00018187834939453751,
        -0.99999439716339111,
        0.003344950033351779,
        0,
        -0.054293502122163773,
        0.0033498911652714014,
        0.9985194206237793,
        0,
        -2.7547829151153564,
        3.1778860092163086,
        -0.080161824822425842,
        1
      ],
      "name": "RootNode (model correction matrix)"
    },
    {
      "children": [
        3,
        4,
        5
      ],
      "name": "Moai_160k_ZR.OBJ.cleaner.materialmerger.gles"
    },
    {
      "mesh": 0,
      "name": ""
    },
    {
      "mesh": 1,
      "name": ""
    },
    {
      "mesh": 2,
      "name": ""
    }
  ],
  "samplers": [
    {
      "magFilter": 9729,
      "minFilter": 9987,
      "wrapS": 10497,
      "wrapT": 10497
    }
  ],
  "scene": 0,
  "scenes": [
    {
      "name": "OSG_Scene",
      "nodes": [
        0
      ]
    }
  ],
  "textures": [
    {
      "sampler": 0,
      "source": 0
    },
    {
      "sampler": 0,
      "source": 1
    },
    {
      "sampler": 0,
      "source": 2
    }
  ]
}

